<svg width="204" height="63" viewBox="0 0 204 63" fill="none" xmlns="http://www.w3.org/2000/svg">
<path d="M62.7614 40.8068H64.8636L69.8068 52.692H69.9773L74.9205 40.8068H77.0227V55.125H75.375V44.2466H75.233L70.6875 55.125H69.0966L64.5511 44.2466H64.4091V55.125H62.7614V40.8068ZM87.2021 50.7345V44.3863H88.8782V55.125H87.2021V53.3072H87.0884C86.8327 53.8526 86.435 54.3163 85.8952 54.6986C85.3555 55.0761 84.6737 55.2648 83.8498 55.2648C83.168 55.2648 82.5619 55.118 82.0316 54.8244C81.5013 54.5261 81.0846 54.0786 80.7816 53.4821C80.4786 52.8808 80.3271 52.1234 80.3271 51.2098V44.3863H82.0032V51.098C82.0032 51.881 82.2257 52.5056 82.6708 52.9717C83.1206 53.4378 83.6935 53.6708 84.3896 53.6708C84.8062 53.6708 85.23 53.5659 85.6609 53.3562C86.0965 53.1465 86.4611 52.8249 86.7546 52.3914C87.0529 51.958 87.2021 51.4056 87.2021 50.7345ZM99.6754 46.7914L98.1697 47.2108C98.075 46.9638 97.9354 46.7237 97.7507 46.4907C97.5708 46.253 97.3246 46.0573 97.0121 45.9035C96.6996 45.7497 96.2995 45.6727 95.8118 45.6727C95.1442 45.6727 94.5878 45.8242 94.1428 46.1272C93.7024 46.4255 93.4822 46.8053 93.4822 47.2667C93.4822 47.6769 93.6338 48.0009 93.9368 48.2386C94.2398 48.4762 94.7133 48.6744 95.3572 48.8329L96.9766 49.2244C97.9519 49.4574 98.6787 49.8139 99.157 50.294C99.6352 50.7694 99.8743 51.3823 99.8743 52.1327C99.8743 52.7479 99.6944 53.2979 99.3345 53.7827C98.9794 54.2674 98.4822 54.6495 97.843 54.9292C97.2038 55.2089 96.4605 55.3487 95.6129 55.3487C94.5002 55.3487 93.5793 55.111 92.8501 54.6356C92.121 54.1602 91.6593 53.4657 91.4652 52.5522L93.0561 52.1606C93.2076 52.7387 93.4941 53.1721 93.9155 53.4611C94.3416 53.75 94.898 53.8945 95.5845 53.8945C96.3658 53.8945 96.986 53.7314 97.4453 53.4051C97.9093 53.0742 98.1413 52.678 98.1413 52.2167C98.1413 51.8438 98.0088 51.5314 97.7436 51.2798C97.4785 51.0234 97.0713 50.8323 96.522 50.7065L94.7038 50.287C93.7048 50.054 92.9709 49.6927 92.5021 49.2034C92.0381 48.7093 91.8061 48.0917 91.8061 47.3507C91.8061 46.7447 91.9789 46.2087 92.3246 45.7427C92.675 45.2766 93.1508 44.9107 93.7521 44.645C94.3582 44.3794 95.0447 44.2466 95.8118 44.2466C96.8913 44.2466 97.7389 44.4796 98.3544 44.9457C98.9747 45.4118 99.415 46.027 99.6754 46.7914ZM106.971 55.3487C105.92 55.3487 105.013 55.1204 104.251 54.6635C103.493 54.2021 102.909 53.5589 102.497 52.7339C102.09 51.9043 101.886 50.9395 101.886 49.8396C101.886 48.7396 102.09 47.7701 102.497 46.9312C102.909 46.0875 103.482 45.4304 104.216 44.9596C104.954 44.4842 105.816 44.2466 106.801 44.2466C107.369 44.2466 107.93 44.3398 108.484 44.5262C109.038 44.7126 109.542 45.0156 109.997 45.435C110.451 45.8499 110.814 46.3999 111.083 47.085C111.353 47.7701 111.488 48.6137 111.488 49.6158V50.3149H103.079V48.8888H109.784C109.784 48.2828 109.661 47.7422 109.414 47.2667C109.173 46.7914 108.827 46.4161 108.377 46.1412C107.932 45.8662 107.407 45.7286 106.801 45.7286C106.133 45.7286 105.556 45.8918 105.068 46.2181C104.585 46.5397 104.213 46.9591 103.953 47.4765C103.692 47.9939 103.562 48.5485 103.562 49.1405V50.0913C103.562 50.9022 103.704 51.5897 103.988 52.1537C104.277 52.713 104.677 53.1395 105.189 53.433C105.7 53.7221 106.294 53.8666 106.971 53.8666C107.412 53.8666 107.809 53.8059 108.164 53.6848C108.524 53.5589 108.834 53.3725 109.095 53.1255C109.355 52.8738 109.556 52.5615 109.699 52.1886L111.318 52.6361C111.147 53.1767 110.861 53.6522 110.458 54.0624C110.056 54.4678 109.559 54.7848 108.967 55.0132C108.375 55.2368 107.71 55.3487 106.971 55.3487ZM120.913 50.7345V44.3863H122.589V55.125H120.913V53.3072H120.799C120.544 53.8526 120.146 54.3163 119.606 54.6986C119.066 55.0761 118.385 55.2648 117.561 55.2648C116.879 55.2648 116.273 55.118 115.743 54.8244C115.212 54.5261 114.796 54.0786 114.493 53.4821C114.19 52.8808 114.038 52.1234 114.038 51.2098V44.3863H115.714V51.098C115.714 51.881 115.937 52.5056 116.382 52.9717C116.832 53.4378 117.404 53.6708 118.1 53.6708C118.517 53.6708 118.941 53.5659 119.372 53.3562C119.807 53.1465 120.172 52.8249 120.466 52.3914C120.764 51.958 120.913 51.4056 120.913 50.7345ZM125.659 55.125V44.3863H127.278V46.0643H127.42C127.648 45.491 128.015 45.0459 128.521 44.7289C129.028 44.4073 129.636 44.2466 130.347 44.2466C131.066 44.2466 131.665 44.4073 132.143 44.7289C132.626 45.0459 133.003 45.491 133.273 46.0643H133.386C133.666 45.5096 134.085 45.0692 134.643 44.7429C135.202 44.412 135.872 44.2466 136.653 44.2466C137.629 44.2466 138.427 44.5472 139.047 45.1485C139.667 45.745 139.977 46.6748 139.977 47.938V55.125H138.301V47.938C138.301 47.1455 138.081 46.5793 137.641 46.239C137.2 45.8988 136.682 45.7286 136.085 45.7286C135.318 45.7286 134.724 45.9571 134.303 46.4139C133.881 46.8659 133.67 47.4392 133.67 48.1337V55.125H131.966V47.7701C131.966 47.1595 131.765 46.6678 131.362 46.295C130.96 45.9174 130.441 45.7286 129.807 45.7286C129.371 45.7286 128.964 45.8428 128.585 46.0713C128.211 46.2997 127.908 46.6165 127.676 47.0221C127.449 47.4229 127.335 47.8867 127.335 48.4133V55.125H125.659ZM153.099 55.3487C152.114 55.3487 151.25 55.118 150.506 54.6565C149.768 54.1952 149.19 53.5496 148.773 52.72C148.362 51.8903 148.156 50.9209 148.156 49.8116C148.156 48.693 148.362 47.7166 148.773 46.8822C149.19 46.048 149.768 45.4001 150.506 44.9387C151.25 44.4772 152.114 44.2466 153.099 44.2466C154.084 44.2466 154.945 44.4772 155.684 44.9387C156.427 45.4001 157.005 46.048 157.417 46.8822C157.834 47.7166 158.042 48.693 158.042 49.8116C158.042 50.9209 157.834 51.8903 157.417 52.72C157.005 53.5496 156.427 54.1952 155.684 54.6565C154.945 55.118 154.084 55.3487 153.099 55.3487ZM153.099 53.8666C153.847 53.8666 154.462 53.6778 154.945 53.3003C155.428 52.9227 155.786 52.4263 156.018 51.8111C156.25 51.1959 156.366 50.5293 156.366 49.8116C156.366 49.0938 156.25 48.425 156.018 47.8051C155.786 47.1852 155.428 46.6842 154.945 46.3019C154.462 45.9198 153.847 45.7286 153.099 45.7286C152.351 45.7286 151.735 45.9198 151.252 46.3019C150.769 46.6842 150.412 47.1852 150.18 47.8051C149.948 48.425 149.832 49.0938 149.832 49.8116C149.832 50.5293 149.948 51.1959 150.18 51.8111C150.412 52.4263 150.769 52.9227 151.252 53.3003C151.735 53.6778 152.351 53.8666 153.099 53.8666ZM165.458 44.3863V45.7846H159.578V44.3863H165.458ZM161.339 55.125V42.9042C161.339 42.2889 161.486 41.7763 161.779 41.3661C162.073 40.956 162.454 40.6484 162.923 40.4432C163.392 40.2382 163.886 40.1356 164.407 40.1356C164.819 40.1356 165.155 40.1683 165.416 40.2336C165.676 40.2987 165.87 40.3594 165.998 40.4153L165.515 41.8415C165.43 41.8136 165.312 41.7786 165.16 41.7366C165.013 41.6947 164.819 41.6737 164.578 41.6737C164.024 41.6737 163.624 41.8112 163.377 42.0863C163.136 42.3612 163.015 42.7644 163.015 43.2958V55.125H161.339Z" fill="#4F4F4F"/>
<path d="M175.67 55.125H172.374L177.396 40.8068H181.359L186.373 55.125H183.077L179.434 44.0787H179.32L175.67 55.125ZM175.464 49.497H183.248V51.86H175.464V49.497ZM188.067 55.125V44.3863H191V46.26H191.114C191.313 45.5935 191.646 45.0902 192.115 44.7499C192.584 44.405 193.124 44.2326 193.734 44.2326C193.886 44.2326 194.049 44.2418 194.224 44.2605C194.4 44.2791 194.554 44.3047 194.686 44.3374V46.9802C194.544 46.9381 194.348 46.9009 194.097 46.8683C193.846 46.8357 193.616 46.8193 193.408 46.8193C192.963 46.8193 192.565 46.9149 192.214 47.106C191.869 47.2924 191.594 47.5534 191.391 47.8889C191.192 48.2246 191.092 48.6114 191.092 49.0495V55.125H188.067ZM202.6 44.3863V46.6235H196.03V44.3863H202.6ZM197.522 41.8136H200.547V51.8251C200.547 52.1001 200.59 52.3145 200.675 52.4683C200.76 52.6175 200.879 52.7223 201.03 52.7829C201.186 52.8435 201.366 52.8738 201.57 52.8738C201.712 52.8738 201.854 52.8621 201.996 52.8389C202.138 52.8108 202.247 52.7899 202.323 52.7759L202.799 54.9922C202.647 55.0388 202.434 55.0924 202.159 55.1529C201.885 55.2182 201.551 55.2578 201.158 55.2718C200.429 55.2998 199.79 55.2042 199.24 54.9852C198.696 54.7661 198.272 54.4259 197.969 53.9644C197.666 53.503 197.517 52.9204 197.522 52.2167V41.8136Z" fill="#E0A449"/>
<path d="M8 57.75H56" stroke="#E0A449" stroke-width="2" stroke-linecap="round" stroke-linejoin="round"/>
<path d="M16 47.25V28.875" stroke="#E0A449" stroke-width="2" stroke-linecap="round" stroke-linejoin="round"/>
<path d="M26.6667 47.25V28.875" stroke="#E0A449" stroke-width="2" stroke-linecap="round" stroke-linejoin="round"/>
<path d="M37.3333 47.25V28.875" stroke="#E0A449" stroke-width="2" stroke-linecap="round" stroke-linejoin="round"/>
<path d="M48 47.25V28.875" stroke="#E0A449" stroke-width="2" stroke-linecap="round" stroke-linejoin="round"/>
<path d="M32 5.25L53.3334 18.375H10.6667L32 5.25Z" stroke="#E0A449" stroke-width="2" stroke-linecap="round" stroke-linejoin="round"/>
<path d="M62.7614 21.1193H64.8636L69.8068 33.0045H69.9773L74.9205 21.1193H77.0227V35.4375H75.375V24.5591H75.233L70.6875 35.4375H69.0966L64.5511 24.5591H64.4091V35.4375H62.7614V21.1193ZM84.9009 35.6612C83.8498 35.6612 82.9431 35.4329 82.1808 34.976C81.4232 34.5146 80.8384 33.8715 80.4265 33.0465C80.0193 32.2168 79.8157 31.252 79.8157 30.1521C79.8157 29.0522 80.0193 28.0826 80.4265 27.2437C80.8384 26.4001 81.4113 25.7429 82.1452 25.2722C82.8839 24.7967 83.7456 24.5591 84.7305 24.5591C85.2987 24.5591 85.8597 24.6523 86.4137 24.8387C86.9677 25.0251 87.4719 25.3281 87.9265 25.7475C88.381 26.1624 88.7433 26.7124 89.0131 27.3975C89.283 28.0826 89.418 28.9263 89.418 29.9283V30.6274H81.0089V29.2013H87.7134C87.7134 28.5953 87.5903 28.0547 87.3441 27.5792C87.1026 27.1039 86.757 26.7286 86.3072 26.4537C85.8621 26.1787 85.3365 26.0411 84.7305 26.0411C84.0629 26.0411 83.4852 26.2044 82.9975 26.5306C82.5146 26.8522 82.1429 27.2716 81.8825 27.789C81.622 28.3064 81.4918 28.861 81.4918 29.453V30.4038C81.4918 31.2147 81.6339 31.9022 81.918 32.4662C82.2068 33.0255 82.6069 33.452 83.1183 33.7456C83.6296 34.0346 84.2238 34.1791 84.9009 34.1791C85.3413 34.1791 85.739 34.1184 86.0941 33.9973C86.454 33.8715 86.7641 33.685 87.0245 33.438C87.2849 33.1863 87.4862 32.874 87.6282 32.5011L89.2475 32.9486C89.0771 33.4892 88.7906 33.9647 88.3881 34.3749C87.9857 34.7803 87.4885 35.0973 86.8967 35.3257C86.3048 35.5493 85.6396 35.6612 84.9009 35.6612ZM96.712 24.6989V26.0972H91.0586V24.6989H96.712ZM92.7063 22.1261H94.3825V32.3613C94.3825 32.8274 94.4511 33.177 94.5884 33.41C94.7305 33.6384 94.9104 33.7922 95.1282 33.8715C95.3507 33.946 95.5851 33.9833 95.8313 33.9833C96.016 33.9833 96.1675 33.974 96.2859 33.9553C96.4042 33.932 96.4989 33.9134 96.57 33.8994L96.9109 35.3816C96.7972 35.4235 96.6386 35.4655 96.435 35.5074C96.2314 35.554 95.9734 35.5773 95.6609 35.5773C95.1874 35.5773 94.7234 35.4771 94.2688 35.2767C93.819 35.0762 93.445 34.771 93.1467 34.3608C92.8531 33.9507 92.7063 33.4333 92.7063 32.8087V22.1261ZM99.2333 35.4375V24.6989H100.853V26.3208H100.966C101.165 25.7895 101.525 25.3584 102.046 25.0274C102.567 24.6965 103.154 24.5311 103.807 24.5311C103.93 24.5311 104.084 24.5334 104.269 24.5381C104.453 24.5427 104.593 24.5497 104.688 24.5591V26.2369C104.631 26.223 104.501 26.202 104.297 26.174C104.098 26.1414 103.888 26.1251 103.665 26.1251C103.135 26.1251 102.661 26.2346 102.245 26.4537C101.833 26.6681 101.506 26.9664 101.265 27.3486C101.028 27.7261 100.909 28.1573 100.909 28.642V35.4375H99.2333ZM110.775 35.6612C109.79 35.6612 108.926 35.4305 108.182 34.969C107.444 34.5077 106.866 33.8621 106.449 33.0325C106.037 32.2028 105.831 31.2334 105.831 30.1241C105.831 29.0055 106.037 28.0291 106.449 27.1947C106.866 26.3605 107.444 25.7126 108.182 25.2512C108.926 24.7897 109.79 24.5591 110.775 24.5591C111.759 24.5591 112.621 24.7897 113.36 25.2512C114.103 25.7126 114.681 26.3605 115.093 27.1947C115.509 28.0291 115.718 29.0055 115.718 30.1241C115.718 31.2334 115.509 32.2028 115.093 33.0325C114.681 33.8621 114.103 34.5077 113.36 34.969C112.621 35.4305 111.759 35.6612 110.775 35.6612ZM110.775 34.1791C111.523 34.1791 112.138 33.9903 112.621 33.6128C113.104 33.2353 113.462 32.7388 113.694 32.1236C113.926 31.5084 114.042 30.8418 114.042 30.1241C114.042 29.4063 113.926 28.7375 113.694 28.1176C113.462 27.4977 113.104 26.9967 112.621 26.6144C112.138 26.2323 111.523 26.0411 110.775 26.0411C110.026 26.0411 109.411 26.2323 108.928 26.6144C108.445 26.9967 108.087 27.4977 107.855 28.1176C107.623 28.7375 107.507 29.4063 107.507 30.1241C107.507 30.8418 107.623 31.5084 107.855 32.1236C108.087 32.7388 108.445 33.2353 108.928 33.6128C109.411 33.9903 110.026 34.1791 110.775 34.1791ZM118.276 39.4645V24.6989H119.896V26.4048H120.094C120.218 26.2183 120.388 25.9806 120.606 25.6916C120.828 25.398 121.146 25.137 121.558 24.9086C121.974 24.6755 122.538 24.5591 123.248 24.5591C124.166 24.5591 124.976 24.7851 125.677 25.2372C126.378 25.6893 126.924 26.3302 127.317 27.1598C127.71 27.9894 127.907 28.9682 127.907 30.0962C127.907 31.2334 127.71 32.2192 127.317 33.0534C126.924 33.8831 126.38 34.5263 125.684 34.9831C124.988 35.4351 124.185 35.6612 123.276 35.6612C122.576 35.6612 122.014 35.5471 121.593 35.3187C121.172 35.0856 120.847 34.8223 120.62 34.5286C120.393 34.2304 120.218 33.9833 120.094 33.7876H119.952V39.4645H118.276ZM119.924 30.0682C119.924 30.8792 120.045 31.5946 120.286 32.2146C120.528 32.8298 120.88 33.3121 121.344 33.6617C121.808 34.0066 122.377 34.1791 123.049 34.1791C123.75 34.1791 124.335 33.9973 124.803 33.6337C125.277 33.2656 125.632 32.7715 125.869 32.1516C126.11 31.5271 126.231 30.8326 126.231 30.0682C126.231 29.3131 126.112 28.6326 125.876 28.0267C125.644 27.4161 125.291 26.9338 124.817 26.5795C124.349 26.2206 123.759 26.0411 123.049 26.0411C122.367 26.0411 121.794 26.2113 121.33 26.5515C120.866 26.8871 120.516 27.3578 120.279 27.9638C120.042 28.5651 119.924 29.2666 119.924 30.0682ZM134.896 35.6612C133.911 35.6612 133.047 35.4305 132.303 34.969C131.565 34.5077 130.987 33.8621 130.57 33.0325C130.158 32.2028 129.952 31.2334 129.952 30.1241C129.952 29.0055 130.158 28.0291 130.57 27.1947C130.987 26.3605 131.565 25.7126 132.303 25.2512C133.047 24.7897 133.911 24.5591 134.896 24.5591C135.88 24.5591 136.742 24.7897 137.481 25.2512C138.224 25.7126 138.802 26.3605 139.214 27.1947C139.63 28.0291 139.839 29.0055 139.839 30.1241C139.839 31.2334 139.63 32.2028 139.214 33.0325C138.802 33.8621 138.224 34.5077 137.481 34.969C136.742 35.4305 135.88 35.6612 134.896 35.6612ZM134.896 34.1791C135.644 34.1791 136.259 33.9903 136.742 33.6128C137.225 33.2353 137.583 32.7388 137.815 32.1236C138.047 31.5084 138.163 30.8418 138.163 30.1241C138.163 29.4063 138.047 28.7375 137.815 28.1176C137.583 27.4977 137.225 26.9967 136.742 26.6144C136.259 26.2323 135.644 26.0411 134.896 26.0411C134.147 26.0411 133.532 26.2323 133.049 26.6144C132.566 26.9967 132.209 27.4977 131.977 28.1176C131.745 28.7375 131.629 29.4063 131.629 30.1241C131.629 30.8418 131.745 31.5084 131.977 32.1236C132.209 32.7388 132.566 33.2353 133.049 33.6128C133.532 33.9903 134.147 34.1791 134.896 34.1791ZM144.074 21.1193V35.4375H142.397V21.1193H144.074ZM147.143 35.4375V24.6989H148.82V35.4375H147.143ZM147.996 22.9091C147.669 22.9091 147.387 22.7996 147.151 22.5805C146.919 22.3615 146.803 22.0981 146.803 21.7905C146.803 21.4829 146.919 21.2195 147.151 21.0005C147.387 20.7814 147.669 20.6719 147.996 20.6719C148.322 20.6719 148.602 20.7814 148.834 21.0005C149.071 21.2195 149.189 21.4829 149.189 21.7905C149.189 22.0981 149.071 22.3615 148.834 22.5805C148.602 22.7996 148.322 22.9091 147.996 22.9091ZM156.634 24.6989V26.0972H150.98V24.6989H156.634ZM152.628 22.1261H154.304V32.3613C154.304 32.8274 154.373 33.177 154.51 33.41C154.652 33.6384 154.832 33.7922 155.05 33.8715C155.273 33.946 155.507 33.9833 155.753 33.9833C155.938 33.9833 156.089 33.974 156.208 33.9553C156.326 33.932 156.421 33.9134 156.492 33.8994L156.833 35.3816C156.719 35.4235 156.56 35.4655 156.357 35.5074C156.153 35.554 155.895 35.5773 155.583 35.5773C155.109 35.5773 154.645 35.4771 154.191 35.2767C153.741 35.0762 153.367 34.771 153.069 34.3608C152.775 33.9507 152.628 33.4333 152.628 32.8087V22.1261ZM162.365 35.6892C161.674 35.6892 161.047 35.561 160.483 35.3047C159.92 35.0437 159.472 34.6685 159.141 34.1791C158.81 33.685 158.644 33.0884 158.644 32.3893C158.644 31.774 158.767 31.2754 159.013 30.8931C159.259 30.5063 159.588 30.2034 160 29.9843C160.412 29.7652 160.867 29.6021 161.364 29.4949C161.866 29.383 162.37 29.2945 162.877 29.2292C163.54 29.1454 164.077 29.0824 164.489 29.0404C164.906 28.9939 165.209 28.9169 165.398 28.8097C165.592 28.7025 165.689 28.5161 165.689 28.2505V28.1945C165.689 27.5047 165.498 26.9687 165.114 26.5865C164.735 26.2044 164.16 26.0132 163.388 26.0132C162.588 26.0132 161.961 26.1857 161.506 26.5306C161.051 26.8755 160.732 27.2437 160.547 27.6352L158.956 27.0759C159.24 26.4234 159.619 25.9153 160.093 25.5518C160.571 25.1836 161.092 24.9272 161.655 24.7827C162.223 24.6336 162.782 24.5591 163.331 24.5591C163.682 24.5591 164.084 24.601 164.539 24.6849C164.998 24.7641 165.441 24.9296 165.867 25.1813C166.298 25.4329 166.655 25.8128 166.939 26.3208C167.223 26.8288 167.365 27.5093 167.365 28.3623V35.4375H165.689V33.9833H165.604C165.49 34.2164 165.301 34.4657 165.036 34.7314C164.771 34.9971 164.418 35.2231 163.978 35.4095C163.537 35.596 163 35.6892 162.365 35.6892ZM162.621 34.207C163.284 34.207 163.843 34.0789 164.297 33.8225C164.757 33.5662 165.102 33.2353 165.334 32.8298C165.571 32.4242 165.689 31.9978 165.689 31.5503V30.0402C165.618 30.1241 165.462 30.201 165.221 30.2709C164.984 30.3362 164.709 30.3944 164.397 30.4457C164.089 30.4923 163.788 30.5342 163.495 30.5715C163.206 30.6042 162.971 30.6322 162.792 30.6554C162.356 30.7114 161.949 30.8023 161.57 30.9281C161.196 31.0493 160.893 31.2334 160.661 31.4804C160.434 31.7228 160.32 32.0537 160.32 32.4732C160.32 33.0465 160.535 33.48 160.966 33.7736C161.402 34.0625 161.953 34.207 162.621 34.207ZM172.101 28.9775V35.4375H170.425V24.6989H172.044V26.3768H172.186C172.442 25.8315 172.83 25.3933 173.351 25.0624C173.872 24.7268 174.544 24.5591 175.368 24.5591C176.107 24.5591 176.753 24.7082 177.307 25.0065C177.861 25.3001 178.292 25.7475 178.599 26.3488C178.907 26.9454 179.061 27.7005 179.061 28.614V35.4375H177.385V28.7258C177.385 27.8822 177.162 27.2251 176.717 26.7543C176.272 26.2789 175.661 26.0411 174.885 26.0411C174.35 26.0411 173.872 26.1553 173.45 26.3838C173.034 26.6122 172.705 26.9454 172.463 27.3835C172.222 27.8217 172.101 28.353 172.101 28.9775Z" fill="#4F4F4F"/>
</svg>
